<?xml version="1.0" encoding="UTF-8" standalone="no"?>
<!-- Generator: Adobe Illustrator 16.0.0, SVG Export Plug-In . SVG Version: 6.00 Build 0)  -->

<svg
   xmlns:dc="http://purl.org/dc/elements/1.1/"
   xmlns:cc="http://creativecommons.org/ns#"
   xmlns:rdf="http://www.w3.org/1999/02/22-rdf-syntax-ns#"
   xmlns:svg="http://www.w3.org/2000/svg"
   xmlns="http://www.w3.org/2000/svg"
   xmlns:sodipodi="http://sodipodi.sourceforge.net/DTD/sodipodi-0.dtd"
   xmlns:inkscape="http://www.inkscape.org/namespaces/inkscape"
   version="1.1"
   id="Layer_1"
   x="0px"
   y="0px"
   width="504.67001"
   height="504.50101"
   viewBox="0 0 504.67001 504.50101"
   enable-background="new 0 0 720 720"
   xml:space="preserve"
   inkscape:version="0.91 r13725"
   sodipodi:docname="logo-es6.svg"><metadata
     id="metadata19"><rdf:RDF><cc:Work
         rdf:about=""><dc:format>image/svg+xml</dc:format><dc:type
           rdf:resource="http://purl.org/dc/dcmitype/StillImage" /><dc:title></dc:title></cc:Work></rdf:RDF></metadata><defs
     id="defs17" /><sodipodi:namedview
     pagecolor="#ffffff"
     bordercolor="#666666"
     borderopacity="1"
     objecttolerance="10"
     gridtolerance="10"
     guidetolerance="10"
     inkscape:pageopacity="0"
     inkscape:pageshadow="2"
     inkscape:window-width="640"
     inkscape:window-height="480"
     id="namedview15"
     showgrid="false"
     fit-margin-top="0"
     fit-margin-left="0"
     fit-margin-right="0"
     fit-margin-bottom="0"
     inkscape:zoom="0.32777778"
     inkscape:cx="320.673"
     inkscape:cy="158.24401"
     inkscape:window-x="208"
     inkscape:window-y="83"
     inkscape:window-maximized="0"
     inkscape:current-layer="Layer_1" /><g
     id="g3"
     transform="translate(-39.327,-13.743)"><rect
       x="39.327"
       y="13.743"
       width="504.67001"
       height="504.50101"
       id="rect5"
       style="fill:#fbde34" /></g><g
     id="g7"
     transform="translate(-39.327,-13.743)"><path
       d="m 303.449,335.518 38.566,-22.329 c 10.152,16.578 23.346,28.758 46.688,28.758 19.624,0 32.14,-9.812 32.14,-23.345 0,-16.239 -12.855,-21.991 -34.508,-31.462 l -11.839,-5.077 c -34.172,-14.546 -56.841,-32.814 -56.841,-71.383 0,-35.523 27.066,-62.59 69.357,-62.59 30.109,0 51.762,10.489 67.322,37.893 l -36.877,23.682 c -8.119,-14.546 -16.913,-20.298 -30.445,-20.298 -13.871,0 -22.668,8.797 -22.668,20.298 0,14.21 8.797,19.962 29.094,28.759 l 11.84,5.074 c 40.26,17.255 62.928,34.846 62.928,74.427 0,42.63 -33.492,65.972 -78.487,65.972 -43.981,-10e-4 -72.401,-20.975 -86.27,-48.379"
       id="path9"
       inkscape:connector-curvature="0"
       style="fill:#343433" /><g
       id="g11"><path
         d="m 115.117,150.257 160.015,0 0,44.238 -114.229,0 0,48.387 100.355,0 0,43.256 -100.355,0 0,50.371 115.77,0 0,45.221 -161.556,0 0,-231.473 z"
         id="path13"
         inkscape:connector-curvature="0"
         style="fill:#343433" /></g></g></svg>