<?xml version="1.0" encoding="UTF-8" standalone="no"?>
<!-- Created with Inkscape (http://www.inkscape.org/) -->

<svg
   xmlns:dc="http://purl.org/dc/elements/1.1/"
   xmlns:cc="http://creativecommons.org/ns#"
   xmlns:rdf="http://www.w3.org/1999/02/22-rdf-syntax-ns#"
   xmlns:svg="http://www.w3.org/2000/svg"
   xmlns="http://www.w3.org/2000/svg"
   xmlns:sodipodi="http://sodipodi.sourceforge.net/DTD/sodipodi-0.dtd"
   xmlns:inkscape="http://www.inkscape.org/namespaces/inkscape"
   version="1.1"
   width="335.88126"
   height="355.80875"
   id="svg2"
   xml:space="preserve"
   inkscape:version="0.91 r13725"
   sodipodi:docname="logo-angular.svg"><sodipodi:namedview
     pagecolor="#ffffff"
     bordercolor="#666666"
     borderopacity="1"
     objecttolerance="10"
     gridtolerance="10"
     guidetolerance="10"
     inkscape:pageopacity="0"
     inkscape:pageshadow="2"
     inkscape:window-width="640"
     inkscape:window-height="480"
     id="namedview12"
     showgrid="false"
     fit-margin-top="0"
     fit-margin-left="0"
     fit-margin-right="0"
     fit-margin-bottom="0"
     inkscape:zoom="0.25757162"
     inkscape:cx="171.15375"
     inkscape:cy="177.215"
     inkscape:window-x="0"
     inkscape:window-y="0"
     inkscape:window-maximized="0"
     inkscape:current-layer="svg2" /><metadata
     id="metadata8"><rdf:RDF><cc:Work
         rdf:about=""><dc:format>image/svg+xml</dc:format><dc:type
           rdf:resource="http://purl.org/dc/dcmitype/StillImage" /><dc:title></dc:title></cc:Work></rdf:RDF></metadata><defs
     id="defs6" /><g
     transform="matrix(1.25,0,0,-1.25,-188.84625,636.71875)"
     id="g10"><g
       transform="scale(0.1,0.1)"
       id="g12"><path
         d="M 2850,5093.75 1510.77,4622.45 1722.39,2867.82 2851.42,2247.28 3986.27,2876.23 4197.82,4630.79 2850,5093.75 Z"
         inkscape:connector-curvature="0"
         id="path14"
         style="fill:#b3b3b3;fill-opacity:1;fill-rule:nonzero;stroke:none" /><path
         d="m 4064.25,4529.39 -1217.38,415.13 0,-2548.98 1020.22,564.62 197.16,1569.23 z"
         inkscape:connector-curvature="0"
         id="path16"
         style="fill:#af2b2d;fill-opacity:1;fill-rule:nonzero;stroke:none" /><path
         d="m 1661.05,4521.89 181.34,-1569.22 1004.47,-557.13 0,2549.03 -1185.81,-422.68 z"
         inkscape:connector-curvature="0"
         id="path18"
         style="fill:#df2e31;fill-opacity:1;fill-rule:nonzero;stroke:none" /><path
         d="m 3129.05,3676.7 -279.96,584.64 -246.46,-584.64 526.42,0 z m 106.74,-245.83 -742.11,0 -166.02,-415.26 -308.82,-5.71 828.04,1842.06 856.9,-1842.06 -286.23,0 -181.76,420.97 z"
         inkscape:connector-curvature="0"
         id="path20"
         style="fill:#f2f2f2;fill-opacity:1;fill-rule:nonzero;stroke:none" /><path
         d="m 2846.87,4851.96 2.21,-590.62 279.67,-585.09 -281.25,0 -0.63,-245 388.9,-0.38 181.77,-421.04 295.49,-5.48 -866.16,1847.61 z"
         inkscape:connector-curvature="0"
         id="path22"
         style="fill:#b3b3b3;fill-opacity:1;fill-rule:nonzero;stroke:none" /></g></g></svg>